:FULLY-SPECIFIED
:FORCE-ALL-JOINTS-BE-3DOF
:DEGREES
65
root 9.07853 16.3022 -27.3382 5.32051 -11.7153 0.440058
lfemur -26.7046 7.59636 -23.7112
ltibia 32.1898 -0 0
lfoot -10.0706 7.75357 0.000435188
ltoes -3.87866 0 0
rfemur -4.33808 -0.799796 15.8698
rtibia 57.2139 -0 0
rfoot 6.86785 -10.3999 0.0152559
rtoes -1.75321 0 0
lowerback -5.09904 0.41435 -2.10585
upperback -2.12688 0.618355 2.55655
thorax 0.617834 0.327246 3.85117
lowerneck -22.5308 -4.13575 -11.7155
upperneck 17.6146 -4.76179 12.7494
head 9.91823 -1.55971 5.7763
lclavicle -4.4147e-15 4.77083e-15 0
lhumerus -38.7946 -6.03172 88.6259
lradius 21.0451 -0 0
lwrist -3.47846 0 0
lhand 1.40221 -17.3131 0.00148959
lfingers 7.12502 0 0
lthumb 26.9322 10.7826 -0.000336181
rclavicle -4.4147e-15 4.77083e-15 0
rhumerus -42.942 13.1964 -90.7951
rradius 38.0879 -0 0
rwrist -19.6289 0 0
rhand -29.7105 -25.8664 0.00140525
rfingers 7.12502 0 0
rthumb -3.0379 -55.8245 0.00135913
66
root 9.09899 16.3281 -27.2193 5.28537 -11.5351 0.493135
lfemur -25.9189 7.34665 -23.8645
ltibia 31.5904 -0 0
lfoot -10.1228 7.90785 0.000119503
ltoes -3.9895 0 0
rfemur -5.56704 -0.902496 16.084
rtibia 58.4815 -0 0
rfoot 5.33819 -10.5397 0.00805283
rtoes -2.04788 0 0
lowerback -5.11325 0.305199 -2.13171
upperback -2.06408 0.473578 2.56894
thorax 0.702135 0.252661 3.87177
lowerneck -22.5569 -4.10341 -11.6145
upperneck 17.6202 -4.72261 12.6413
head 9.91331 -1.5457 5.72496
lclavicle -1.04942e-14 1.07344e-14 0
lhumerus -38.1328 -6.50412 88.6033
lradius 21.2295 -0 0
lwrist -3.26546 0 0
lhand 0.898772 -17.3518 0.000773867
lfingers 7.12502 0 0
lthumb 26.4507 10.8198 -0.0001531
rclavicle -1.04942e-14 1.07344e-14 0
rhumerus -42.8373 13.045 -90.6203
rradius 38.1475 -0 0
rwrist -19.7433 0 0
rhand -29.7638 -25.84 0.000943986
rfingers 7.12502 0 0
rthumb -3.08934 -55.7974 0.00091311
67
root 9.11944 16.354 -27.1003 5.25876 -11.3341 0.578659
lfemur -25.1905 7.09119 -24.0521
ltibia 31.0535 0 0
lfoot -10.2192 8.0319 0
ltoes -4.09995 0 0
rfemur -6.8011 -0.989197 16.2669
rtibia 59.6204 0 0
rfoot 3.87486 -10.6797 0
rtoes -2.61707 0 0
lowerback -5.12157 0.197437 -2.19318
upperback -2.02295 0.332538 2.57571
thorax 0.76082 0.180792 3.90648
lowerneck -22.5665 -4.07274 -11.5427
upperneck 17.6609 -4.68756 12.5612
head 9.92005 -1.53304 5.68962
lclavicle -1.65737e-14 1.66979e-14 0
lhumerus -37.4797 -6.97695 88.584
lradius 21.4248 0 0
lwrist -3.04867 0 0
lhand 0.507587 -17.3638 0
lfingers 7.12502 0 0
lthumb 26.0765 10.8662 0
rclavicle -1.65737e-14 1.66979e-14 0
rhumerus -42.7869 12.923 -90.4558
rradius 38.2235 0 0
rwrist -19.862 0 0
rhand -29.8255 -25.6699 0
rfingers 7.12502 0 0
rthumb -3.14896 -55.6264 0
68
root 9.13452 16.3658 -26.9917 5.26033 -11.0938 0.696534
lfemur -24.5466 6.82505 -24.2756
ltibia 30.5744 -0 0
lfoot -10.3375 8.1132 0.000484114
ltoes -4.27291 0 0
rfemur -8.06321 -1.06179 16.4304
rtibia 60.623 -0 0
rfoot 2.43278 -10.7805 -0.00901036
rtoes -3.6592 0 0
lowerback -5.13373 0.0845922 -2.29651
upperback -2.01343 0.187051 2.57869
thorax 0.789798 0.107792 3.96024
lowerneck -22.5541 -4.04003 -11.5074
upperneck 17.7466 -4.65439 12.5261
head 9.94139 -1.51951 5.67863
lclavicle -1.99178e-14 1.45775e-14 0
lhumerus -36.8335 -7.47008 88.5745
lradius 21.6299 -0 0
lwrist -2.83056 0 0
lhand 0.208823 -17.369 -0.000745585
lfingers 7.12502 0 0
lthumb 25.7906 10.9043 -0.000216486
rclavicle -1.99178e-14 1.45775e-14 0
rhumerus -42.8023 12.8347 -90.3052
rradius 38.3358 -0 0
rwrist -19.999 0 0
rhand -29.8968 -25.2808 -0.00135234
rfingers 7.12502 0 0
rthumb -3.2178 -55.2362 -0.0013072
69
root 9.1496 16.3776 -26.8831 5.29615 -10.8049 0.828498
lfemur -23.9812 6.54149 -24.5155
ltibia 30.1301 -0 0
lfoot -10.4497 8.16031 0.0013571
ltoes -4.52293 0 0
rfemur -9.35398 -1.11601 16.6062
rtibia 61.4831 -0 0
rfoot 0.913904 -10.7988 -0.0161587
rtoes -5.19907 0 0
lowerback -5.15958 -0.039159 -2.42647
upperback -2.03022 0.0286897 2.58233
thorax 0.800762 0.0291233 4.02881
lowerneck -22.5215 -4.00284 -11.5
upperneck 17.8692 -4.62104 12.5334
head 9.97412 -1.50381 5.68955
lclavicle -2.3262e-14 1.24572e-14 0
lhumerus -36.1805 -7.992 88.5688
lradius 21.8441 -0 0
lwrist -2.61904 0 0
lhand -0.0533289 -17.3819 -0.00165417
lfingers 7.12502 0 0
lthumb 25.5395 10.9281 -0.000904857
rclavicle -2.3262e-14 1.24572e-14 0
rhumerus -42.8705 12.7821 -90.1729
rradius 38.5035 -0 0
rwrist -20.1727 0 0
rhand -29.9758 -24.7043 -0.00262381
rfingers 7.12502 0 0
rthumb -3.29408 -54.6586 -0.00253511
70
root 9.16468 16.3894 -26.7745 5.34355 -10.4887 0.970179
lfemur -23.4581 6.24526 -24.7644
ltibia 29.7208 -0 0
lfoot -10.5768 8.19102 0.00209884
ltoes -4.77501 0 0
rfemur -10.6446 -1.1494 16.7862
rtibia 62.2085 -0 0
rfoot -0.649928 -10.7728 -0.0186424
rtoes -6.99485 0 0
lowerback -5.18924 -0.167207 -2.57146
upperback -2.05953 -0.134409 2.58558
thorax 0.801704 -0.0515253 4.10504
lowerneck -22.4758 -3.96523 -11.5092
upperneck 18.014 -4.5898 12.561
head 10.0138 -1.48839 5.71138
lclavicle -2.66061e-14 1.03368e-14 0
lhumerus -35.5196 -8.52006 88.5574
lradius 22.069 -0 0
lwrist -2.41304 0 0
lhand -0.268036 -17.3813 -0.00244793
lfingers 7.12502 0 0
lthumb 25.3338 10.9579 -0.00171379
rclavicle -2.66061e-14 1.03368e-14 0
rhumerus -42.9734 12.7603 -90.0551
rradius 38.7066 -0 0
rwrist -20.3703 0 0
rhand -30.0607 -24.0426 -0.00323009
rfingers 7.12502 0 0
rthumb -3.37609 -53.9956 -0.00311994
71
root 9.17976 16.4011 -26.6659 5.37975 -10.1661 1.11698
lfemur -22.9417 5.94122 -25.0152
ltibia 29.3465 -0 0
lfoot -10.7398 8.22311 0.00228563
ltoes -4.95418 0 0
rfemur -11.9063 -1.16002 16.9623
rtibia 62.8073 -0 0
rfoot -2.22686 -10.741 -0.015601
rtoes -8.8047 0 0
lowerback -5.21291 -0.292888 -2.71994
upperback -2.08757 -0.294113 2.58735
thorax 0.800644 -0.13048 4.18174
lowerneck -22.4243 -3.93126 -11.5236
upperneck 18.1668 -4.5629 12.587
head 10.0559 -1.47569 5.73309
lclavicle -2.99502e-14 8.21643e-15 0
lhumerus -34.8496 -9.0314 88.5312
lradius 22.3057 -0 0
lwrist -2.21147 0 0
lhand -0.424467 -17.3458 -0.00270708
lfingers 7.12502 0 0
lthumb 25.1839 11.014 -0.00215773
rclavicle -2.99502e-14 8.21643e-15 0
rhumerus -43.0931 12.7647 -89.948
rradius 38.9248 -0 0
rwrist -20.5786 0 0
rhand -30.1497 -23.3977 -0.00288795
rfingers 7.12502 0 0
rthumb -3.46208 -53.3492 -0.00278868
72
root 9.19484 16.4129 -26.5573 5.38188 -9.8581 1.26406
lfemur -22.3962 5.63446 -25.2612
ltibia 29.0072 -0 0
lfoot -10.9594 8.27435 0.00161574
ltoes -4.98545 0 0
rfemur -13.1102 -1.14645 17.126
rtibia 63.2872 -0 0
rfoot -3.78502 -10.7419 -0.00828361
rtoes -10.3868 0 0
lowerback -5.2209 -0.40948 -2.86039
upperback -2.10054 -0.442291 2.58645
thorax 0.805631 -0.204088 4.25172
lowerneck -22.3742 -3.90499 -11.5321
upperneck 18.3131 -4.54242 12.5892
head 10.0959 -1.46813 5.74366
lclavicle -3.32944e-14 6.09606e-15 0
lhumerus -34.1693 -9.50296 88.4818
lradius 22.5558 -0 0
lwrist -2.01324 0 0
lhand -0.511791 -17.2541 -0.00199106
lfingers 7.12502 0 0
lthumb 25.1001 11.1167 -0.0017212
rclavicle -3.32944e-14 6.09606e-15 0
rhumerus -43.2116 12.7903 -89.8479
rradius 39.138 -0 0
rwrist -20.7849 0 0
rhand -30.2411 -22.8716 -0.00166547
rfingers 7.12502 0 0
rthumb -3.5503 -52.8217 -0.00160767
73
root 9.20992 16.4247 -26.4487 5.32693 -9.58545 1.40635
lfemur -21.7861 5.33019 -25.4957
ltibia 28.703 0 0
lfoot -11.2567 8.36254 0
ltoes -4.79385 0 0
rfemur -14.2274 -1.10777 17.2691
rtibia 63.6561 0 0
rfoot -5.29258 -10.8137 0
rtoes -11.4993 0 0
lowerback -5.20356 -0.510212 -2.98135
upperback -2.08464 -0.57081 2.5816
thorax 0.824741 -0.268712 4.30777
lowerneck -22.3325 -3.89054 -11.5234
upperneck 18.4384 -4.53037 12.5457
head 10.1295 -1.46811 5.73205
lclavicle -3.66385e-14 3.97569e-15 0
lhumerus -33.4773 -9.91145 88.4011
lradius 22.8205 0 0
lwrist -1.81726 0 0
lhand -0.51917 -17.0849 0
lfingers 7.12502 0 0
lthumb 25.093 11.2863 0
rclavicle -3.66385e-14 3.97569e-15 0
rhumerus -43.311 12.8322 -89.7511
rradius 39.3261 0 0
rwrist -20.976 0 0
rhand -30.333 -22.5664 0
rfingers 7.12502 0 0
rthumb -3.63904 -52.515 0
74
root 9.22449 16.4214 -26.3356 5.19544 -9.35084 1.5458
lfemur -21.0931 5.0181 -25.7204
ltibia 28.4413 -0 0
lfoot -11.6681 8.50361 -0.00241212
ltoes -4.23797 0 0
rfemur -15.2353 -1.05087 17.3894
rtibia 63.9007 -0 0
rfoot -6.79567 -10.9698 0.00742901
rtoes -12.102 0 0
lowerback -5.1463 -0.593307 -3.07983
upperback -2.03574 -0.677871 2.5716
thorax 0.853892 -0.323441 4.34719
lowerneck -22.2877 -3.88852 -11.4873
upperneck 18.5377 -4.52733 12.4382
head 10.1518 -1.47756 5.68934
lclavicle -3.37126e-14 3.84317e-15 0
lhumerus -32.762 -10.2251 88.2757
lradius 23.0859 -0 0
lwrist -1.65752 0 0
lhand -0.274251 -16.6937 -0.00285532
lfingers 7.12502 0 0
lthumb 25.3279 11.6473 -0.00201013
rclavicle -3.37126e-14 3.84317e-15 0
rhumerus -43.403 12.9083 -89.6637
rradius 39.5055 -0 0
rwrist -21.1665 0 0
rhand -30.4325 -22.5243 0.00152781
rfingers 7.12502 0 0
rthumb -3.73514 -52.4712 0.00147277
75
root 9.23906 16.418 -26.2225 5.00187 -9.13786 1.6864
lfemur -20.3419 4.69223 -25.9416
ltibia 28.2236 -0 0
lfoot -12.184 8.68654 -0.00461185
ltoes -3.34953 0 0
rfemur -16.1522 -0.979007 17.4925
rtibia 64.012 -0 0
rfoot -8.32902 -11.1823 0.0131239
rtoes -12.3802 0 0
lowerback -5.05402 -0.66372 -3.16448
upperback -1.96405 -0.769609 2.55711
thorax 0.885846 -0.371005 4.37521
lowerneck -22.2316 -3.89582 -11.4308
upperneck 18.6214 -4.53167 12.2808
head 10.1656 -1.49493 5.62257
lclavicle -3.07868e-14 3.71064e-15 0
lhumerus -32.022 -10.4552 88.1109
lradius 23.3482 -0 0
lwrist -1.54168 0 0
lhand 0.248675 -16.0689 -0.0161576
lfingers 7.12502 0 0
lthumb 25.8296 12.2081 -0.0126688
rclavicle -3.07868e-14 3.71064e-15 0
rhumerus -43.5042 13.0261 -89.5901
rradius 39.6955 -0 0
rwrist -21.3697 0 0
rhand -30.5425 -22.672 0.00251275
rfingers 7.12502 0 0
rthumb -3.84135 -52.617 0.00242082
